# xmcd
#
# Track frame offsets:
#	150
#	13450
#	28733
#	43235
#	56940
#	75518
#	88413
#	99293
#	113400
#	138038
#	152163
#	164955
#	179273
#	192763
#	203423
#	214055
#	225708
#	240253
#	253070
#	266138
#	282535
#	298193
#
# Disc length: 4289
#
# Revision: 6
# Processed by: cddbd v1.5.1PL0 Copyright (c) Steve Scherf et al.
# Submitted via: ExactAudioCopy v0.95a4
# Normalized: r5:DSETVAR1
#
DISCID=4410bf16
DTITLE=Various Artist - The Blues [disc 4]
DYEAR=1993
DGENRE=
TTITLE0=Muddy Waters - Louisiana Blues
TTITLE1=Muddy Waters - Honey Bee
TTITLE2=Lowell Fulson - Reconsider Baby
TTITLE3=Aleck Miller - Eyesight To The Blind
TTITLE4=Jimmy And Mama Yancey - Monkey Woman Blues
TTITLE5=Big Mama Thornton - Hound Dog
TTITLE6=Junior Parker - Mystery Train
TTITLE7=Junior Wells - Hoodoo Man
TTITLE8=Joe Williams - Every Day I Have The Blues
TTITLE9=Howlin' Wolf - Smokestack Lightnin'
TTITLE10=Elmore James - The Sky Is Cryin'
TTITLE11=Memphis Slim - Woman Blues Boogie
TTITLE12=Bobby Blue Bland - Farther Up The Road
TTITLE13=Bobby Blue Bland - I'll Take Care Of You
TTITLE14=Buddy Guy - The First Time I Met The Blues
TTITLE15=Lightnin' Slim - Rooster Blues
TTITLE16=Otis Rush - So Many Roads, So Many Trains
TTITLE17=Jimmy Reed - Big Boss Man
TTITLE18=Ray Charles - I Got A Woman
TTITLE19=Henry Johnson - Join The Army
TTITLE20=Latimore - Let's Straighten It Out
TTITLE21=John Cephas and Phil Wiggins - Dog Days Of August
EXTD=
EXTT0=
EXTT1=
EXTT2=
EXTT3=
EXTT4=
EXTT5=
EXTT6=
EXTT7=
EXTT8=
EXTT9=
EXTT10=
EXTT11=
EXTT12=
EXTT13=
EXTT14=
EXTT15=
EXTT16=
EXTT17=
EXTT18=
EXTT19=
EXTT20=
EXTT21=
PLAYORDER=
